<mxfile host="app.diagrams.net" modified="2021-07-08T09:20:04.457Z" agent="5.0 (Windows NT 10.0; Win64; x64) AppleWebKit/537.36 (KHTML, like Gecko) Chrome/91.0.4472.124 Safari/537.36" etag="TDAtei7UNKpUTbljUjoj" version="14.8.5" type="github">
  <diagram id="ayjJWQB346MqalPvd05N" name="Page-1">
    <mxGraphModel dx="1209" dy="749" grid="1" gridSize="10" guides="1" tooltips="1" connect="1" arrows="1" fold="1" page="1" pageScale="1" pageWidth="827" pageHeight="1169" math="0" shadow="0">
      <root>
        <mxCell id="0" />
        <mxCell id="1" parent="0" />
        <mxCell id="-fNTB-2suzKJk9UKnYij-1" value="&lt;font style=&quot;font-size: 13px&quot;&gt;PR Title&lt;/font&gt;" style="rounded=0;whiteSpace=wrap;html=1;opacity=90;fillColor=#dae8fc;fontSize=12;fontStyle=1" vertex="1" parent="1">
          <mxGeometry x="130" y="110" width="590" height="30" as="geometry" />
        </mxCell>
        <mxCell id="-fNTB-2suzKJk9UKnYij-2" value="" style="shape=waypoint;sketch=0;fillStyle=solid;size=6;pointerEvents=1;points=[];fillColor=none;resizable=0;rotatable=0;perimeter=centerPerimeter;snapToPoint=1;" vertex="1" parent="1">
          <mxGeometry x="378.75" y="165" width="40" height="40" as="geometry" />
        </mxCell>
        <mxCell id="-fNTB-2suzKJk9UKnYij-3" value="" style="shape=waypoint;sketch=0;fillStyle=solid;size=6;pointerEvents=1;points=[];fillColor=none;resizable=0;rotatable=0;perimeter=centerPerimeter;snapToPoint=1;" vertex="1" parent="1">
          <mxGeometry x="405.25" y="165" width="40" height="40" as="geometry" />
        </mxCell>
        <mxCell id="-fNTB-2suzKJk9UKnYij-4" value="" style="shape=waypoint;sketch=0;fillStyle=solid;size=6;pointerEvents=1;points=[];fillColor=none;resizable=0;rotatable=0;perimeter=centerPerimeter;snapToPoint=1;" vertex="1" parent="1">
          <mxGeometry x="431.25" y="165" width="40" height="40" as="geometry" />
        </mxCell>
        <mxCell id="-fNTB-2suzKJk9UKnYij-5" style="edgeStyle=orthogonalEdgeStyle;rounded=0;orthogonalLoop=1;jettySize=auto;html=1;exitX=0.5;exitY=0;exitDx=0;exitDy=0;entryX=0.318;entryY=0.997;entryDx=0;entryDy=0;entryPerimeter=0;startArrow=classic;startFill=1;endArrow=none;endFill=0;" edge="1" parent="1" source="-fNTB-2suzKJk9UKnYij-7" target="-fNTB-2suzKJk9UKnYij-1">
          <mxGeometry relative="1" as="geometry" />
        </mxCell>
        <mxCell id="-fNTB-2suzKJk9UKnYij-6" style="edgeStyle=none;rounded=0;orthogonalLoop=1;jettySize=auto;html=1;entryX=0.5;entryY=0;entryDx=0;entryDy=0;startArrow=none;startFill=0;endArrow=classic;endFill=1;" edge="1" parent="1" source="-fNTB-2suzKJk9UKnYij-7" target="-fNTB-2suzKJk9UKnYij-18">
          <mxGeometry relative="1" as="geometry" />
        </mxCell>
        <mxCell id="-fNTB-2suzKJk9UKnYij-7" value="&lt;font style=&quot;font-size: 12px&quot;&gt;Word Vector&amp;nbsp;&lt;/font&gt;&lt;span style=&quot;color: rgb(0 , 0 , 0)&quot;&gt;`x_{2}`&lt;/span&gt;" style="rounded=0;whiteSpace=wrap;html=1;opacity=90;fillColor=#f5f5f5;fontSize=12;fontStyle=1;strokeColor=#666666;fontColor=#333333;" vertex="1" parent="1">
          <mxGeometry x="264" y="170" width="108" height="30" as="geometry" />
        </mxCell>
        <mxCell id="-fNTB-2suzKJk9UKnYij-8" style="edgeStyle=orthogonalEdgeStyle;rounded=0;orthogonalLoop=1;jettySize=auto;html=1;exitX=0.5;exitY=0;exitDx=0;exitDy=0;entryX=0.091;entryY=1;entryDx=0;entryDy=0;entryPerimeter=0;startArrow=classic;startFill=1;endArrow=none;endFill=0;" edge="1" parent="1" source="-fNTB-2suzKJk9UKnYij-10" target="-fNTB-2suzKJk9UKnYij-1">
          <mxGeometry relative="1" as="geometry" />
        </mxCell>
        <mxCell id="-fNTB-2suzKJk9UKnYij-9" style="rounded=0;orthogonalLoop=1;jettySize=auto;html=1;exitX=0.5;exitY=1;exitDx=0;exitDy=0;startArrow=none;startFill=0;endArrow=classic;endFill=1;entryX=0;entryY=0;entryDx=0;entryDy=0;" edge="1" parent="1" source="-fNTB-2suzKJk9UKnYij-10" target="-fNTB-2suzKJk9UKnYij-18">
          <mxGeometry relative="1" as="geometry">
            <mxPoint x="310" y="256" as="targetPoint" />
          </mxGeometry>
        </mxCell>
        <mxCell id="-fNTB-2suzKJk9UKnYij-10" value="&lt;font style=&quot;font-size: 12px&quot;&gt;Word Vector&amp;nbsp;&lt;/font&gt;&lt;span style=&quot;color: rgb(0 , 0 , 0)&quot;&gt;`x_{1}`&lt;/span&gt;" style="rounded=0;whiteSpace=wrap;html=1;opacity=90;fillColor=#f5f5f5;fontSize=12;fontStyle=1;strokeColor=#666666;fontColor=#333333;" vertex="1" parent="1">
          <mxGeometry x="130" y="170" width="108" height="30" as="geometry" />
        </mxCell>
        <mxCell id="-fNTB-2suzKJk9UKnYij-11" style="edgeStyle=orthogonalEdgeStyle;rounded=0;orthogonalLoop=1;jettySize=auto;html=1;exitX=0.5;exitY=0;exitDx=0;exitDy=0;entryX=0.909;entryY=1;entryDx=0;entryDy=0;entryPerimeter=0;startArrow=classic;startFill=1;endArrow=none;endFill=0;" edge="1" parent="1" source="-fNTB-2suzKJk9UKnYij-13" target="-fNTB-2suzKJk9UKnYij-1">
          <mxGeometry relative="1" as="geometry" />
        </mxCell>
        <mxCell id="-fNTB-2suzKJk9UKnYij-12" style="edgeStyle=none;rounded=0;orthogonalLoop=1;jettySize=auto;html=1;exitX=0.5;exitY=1;exitDx=0;exitDy=0;entryX=1;entryY=0;entryDx=0;entryDy=0;startArrow=none;startFill=0;endArrow=classic;endFill=1;" edge="1" parent="1" source="-fNTB-2suzKJk9UKnYij-13" target="-fNTB-2suzKJk9UKnYij-18">
          <mxGeometry relative="1" as="geometry" />
        </mxCell>
        <mxCell id="-fNTB-2suzKJk9UKnYij-13" value="&lt;font style=&quot;font-size: 12px&quot;&gt;Word Vector&amp;nbsp;&lt;/font&gt;&lt;span style=&quot;color: rgb(0 , 0 , 0)&quot;&gt;`x_{n}`&lt;/span&gt;" style="rounded=0;whiteSpace=wrap;html=1;opacity=90;fillColor=#f5f5f5;fontSize=12;fontStyle=1;strokeColor=#666666;fontColor=#333333;" vertex="1" parent="1">
          <mxGeometry x="612" y="170" width="108" height="30" as="geometry" />
        </mxCell>
        <mxCell id="-fNTB-2suzKJk9UKnYij-14" style="edgeStyle=orthogonalEdgeStyle;rounded=0;orthogonalLoop=1;jettySize=auto;html=1;exitX=0.5;exitY=0;exitDx=0;exitDy=0;entryX=0.681;entryY=1;entryDx=0;entryDy=0;entryPerimeter=0;startArrow=classic;startFill=1;endArrow=none;endFill=0;" edge="1" parent="1" source="-fNTB-2suzKJk9UKnYij-16" target="-fNTB-2suzKJk9UKnYij-1">
          <mxGeometry relative="1" as="geometry" />
        </mxCell>
        <mxCell id="-fNTB-2suzKJk9UKnYij-15" style="edgeStyle=none;rounded=0;orthogonalLoop=1;jettySize=auto;html=1;exitX=0.5;exitY=1;exitDx=0;exitDy=0;entryX=0.5;entryY=0;entryDx=0;entryDy=0;startArrow=none;startFill=0;endArrow=classic;endFill=1;" edge="1" parent="1" source="-fNTB-2suzKJk9UKnYij-16" target="-fNTB-2suzKJk9UKnYij-18">
          <mxGeometry relative="1" as="geometry" />
        </mxCell>
        <mxCell id="-fNTB-2suzKJk9UKnYij-16" value="&lt;font style=&quot;font-size: 12px&quot;&gt;Word Vector&amp;nbsp;&lt;/font&gt;&lt;span style=&quot;color: rgb(0 , 0 , 0)&quot;&gt;`x_{n-1}`&lt;/span&gt;" style="rounded=0;whiteSpace=wrap;html=1;opacity=90;fillColor=#f5f5f5;fontSize=12;fontStyle=1;strokeColor=#666666;fontColor=#333333;" vertex="1" parent="1">
          <mxGeometry x="478" y="170" width="108" height="30" as="geometry" />
        </mxCell>
        <mxCell id="-fNTB-2suzKJk9UKnYij-17" style="edgeStyle=orthogonalEdgeStyle;rounded=0;orthogonalLoop=1;jettySize=auto;html=1;entryX=0.501;entryY=-0.042;entryDx=0;entryDy=0;entryPerimeter=0;" edge="1" parent="1" target="-fNTB-2suzKJk9UKnYij-21">
          <mxGeometry relative="1" as="geometry">
            <mxPoint x="425" y="273" as="sourcePoint" />
          </mxGeometry>
        </mxCell>
        <mxCell id="-fNTB-2suzKJk9UKnYij-18" value="&lt;b&gt;Averaging&lt;/b&gt;" style="ellipse;whiteSpace=wrap;html=1;fillColor=#f8cecc;strokeColor=#b85450;" vertex="1" parent="1">
          <mxGeometry x="312" y="235" width="226" height="40" as="geometry" />
        </mxCell>
        <mxCell id="-fNTB-2suzKJk9UKnYij-19" value="" style="strokeWidth=2;html=1;shape=mxgraph.lean_mapping.buffer_or_safety_stock;rotation=90;fillColor=#ffe6cc;strokeColor=#d79b00;" vertex="1" parent="1">
          <mxGeometry x="480.56" y="277" width="40" height="100" as="geometry" />
        </mxCell>
        <mxCell id="-fNTB-2suzKJk9UKnYij-20" value="" style="strokeWidth=2;html=1;shape=mxgraph.lean_mapping.buffer_or_safety_stock;rotation=90;fillColor=#ffe6cc;strokeColor=#d79b00;" vertex="1" parent="1">
          <mxGeometry x="329.43" y="277" width="40" height="100" as="geometry" />
        </mxCell>
        <mxCell id="-fNTB-2suzKJk9UKnYij-21" value="" style="verticalLabelPosition=bottom;verticalAlign=middle;html=1;shape=mxgraph.basic.rect;fillColor2=none;strokeWidth=2;size=20;indent=5;fontStyle=0;labelBackgroundColor=none;labelBorderColor=#000000;fillColor=#ffe6cc;strokeColor=#d79b00;" vertex="1" parent="1">
          <mxGeometry x="364.93" y="307" width="120" height="40" as="geometry" />
        </mxCell>
        <mxCell id="-fNTB-2suzKJk9UKnYij-22" value="" style="shape=waypoint;sketch=0;fillStyle=solid;size=6;pointerEvents=1;points=[];fillColor=#ffe6cc;resizable=0;rotatable=0;perimeter=centerPerimeter;snapToPoint=1;strokeColor=#d79b00;" vertex="1" parent="1">
          <mxGeometry x="379" y="307" width="40" height="40" as="geometry" />
        </mxCell>
        <mxCell id="-fNTB-2suzKJk9UKnYij-23" value="" style="shape=waypoint;sketch=0;fillStyle=solid;size=6;pointerEvents=1;points=[];fillColor=#ffe6cc;resizable=0;rotatable=0;perimeter=centerPerimeter;snapToPoint=1;strokeColor=#d79b00;" vertex="1" parent="1">
          <mxGeometry x="405.5" y="307" width="40" height="40" as="geometry" />
        </mxCell>
        <mxCell id="-fNTB-2suzKJk9UKnYij-24" value="" style="shape=waypoint;sketch=0;fillStyle=solid;size=6;pointerEvents=1;points=[];fillColor=#ffe6cc;resizable=0;rotatable=0;perimeter=centerPerimeter;snapToPoint=1;strokeColor=#d79b00;" vertex="1" parent="1">
          <mxGeometry x="431.5" y="307" width="40" height="40" as="geometry" />
        </mxCell>
        <mxCell id="-fNTB-2suzKJk9UKnYij-25" value="&lt;font color=&quot;#4d4d4d&quot; style=&quot;font-size: 13px&quot;&gt;&lt;span style=&quot;font-size: 13px&quot;&gt;Document Vector&lt;/span&gt;&lt;/font&gt;" style="text;html=1;strokeColor=none;fillColor=none;align=left;verticalAlign=middle;whiteSpace=wrap;rounded=0;labelBackgroundColor=none;fontSize=13;fontFamily=Helvetica;fontStyle=3;strokeWidth=1;flipV=1;" vertex="1" parent="1">
          <mxGeometry x="130" y="317" width="142" height="20" as="geometry" />
        </mxCell>
        <mxCell id="-fNTB-2suzKJk9UKnYij-26" value="" style="strokeWidth=2;html=1;shape=mxgraph.lean_mapping.buffer_or_safety_stock;rotation=90;fillColor=#d5e8d4;strokeColor=#82b366;" vertex="1" parent="1">
          <mxGeometry x="480.56" y="364" width="40" height="100" as="geometry" />
        </mxCell>
        <mxCell id="-fNTB-2suzKJk9UKnYij-27" value="" style="strokeWidth=2;html=1;shape=mxgraph.lean_mapping.buffer_or_safety_stock;rotation=90;fillColor=#d5e8d4;strokeColor=#82b366;" vertex="1" parent="1">
          <mxGeometry x="329.43" y="364" width="40" height="100" as="geometry" />
        </mxCell>
        <mxCell id="-fNTB-2suzKJk9UKnYij-28" value="" style="verticalLabelPosition=bottom;verticalAlign=middle;html=1;shape=mxgraph.basic.rect;fillColor2=none;strokeWidth=2;size=20;indent=5;fontStyle=0;labelBackgroundColor=none;labelBorderColor=#000000;fillColor=#d5e8d4;strokeColor=#82b366;" vertex="1" parent="1">
          <mxGeometry x="364.93" y="394" width="120" height="40" as="geometry" />
        </mxCell>
        <mxCell id="-fNTB-2suzKJk9UKnYij-29" value="" style="shape=waypoint;sketch=0;fillStyle=solid;size=6;pointerEvents=1;points=[];fillColor=#d5e8d4;resizable=0;rotatable=0;perimeter=centerPerimeter;snapToPoint=1;strokeColor=#82b366;" vertex="1" parent="1">
          <mxGeometry x="379" y="394" width="40" height="40" as="geometry" />
        </mxCell>
        <mxCell id="-fNTB-2suzKJk9UKnYij-30" value="" style="shape=waypoint;sketch=0;fillStyle=solid;size=6;pointerEvents=1;points=[];fillColor=#d5e8d4;resizable=0;rotatable=0;perimeter=centerPerimeter;snapToPoint=1;strokeColor=#82b366;" vertex="1" parent="1">
          <mxGeometry x="405.5" y="394" width="40" height="40" as="geometry" />
        </mxCell>
        <mxCell id="-fNTB-2suzKJk9UKnYij-31" value="" style="shape=waypoint;sketch=0;fillStyle=solid;size=6;pointerEvents=1;points=[];fillColor=#d5e8d4;resizable=0;rotatable=0;perimeter=centerPerimeter;snapToPoint=1;strokeColor=#82b366;" vertex="1" parent="1">
          <mxGeometry x="431.5" y="394" width="40" height="40" as="geometry" />
        </mxCell>
        <mxCell id="-fNTB-2suzKJk9UKnYij-32" value="&lt;font color=&quot;#4d4d4d&quot; style=&quot;font-size: 13px;&quot;&gt;&lt;span style=&quot;font-size: 13px;&quot;&gt;Hidden Layer&lt;/span&gt;&lt;/font&gt;" style="text;html=1;strokeColor=none;fillColor=none;align=left;verticalAlign=middle;whiteSpace=wrap;rounded=0;labelBackgroundColor=none;fontSize=13;fontFamily=Helvetica;fontStyle=3;strokeWidth=1;flipV=1;" vertex="1" parent="1">
          <mxGeometry x="130" y="364" width="142" height="20" as="geometry" />
        </mxCell>
        <mxCell id="-fNTB-2suzKJk9UKnYij-33" value="" style="endArrow=classic;html=1;fontFamily=Helvetica;fontSize=13;exitX=1;exitY=0.5;exitDx=0;exitDy=0;" edge="1" parent="1" source="-fNTB-2suzKJk9UKnYij-20">
          <mxGeometry width="50" height="50" relative="1" as="geometry">
            <mxPoint x="351.33000000000015" y="324.00000000000006" as="sourcePoint" />
            <mxPoint x="351" y="392.31999999999994" as="targetPoint" />
          </mxGeometry>
        </mxCell>
        <mxCell id="-fNTB-2suzKJk9UKnYij-34" value="" style="endArrow=classic;html=1;fontFamily=Helvetica;fontSize=13;" edge="1" parent="1">
          <mxGeometry width="50" height="50" relative="1" as="geometry">
            <mxPoint x="500" y="347" as="sourcePoint" />
            <mxPoint x="500.05999999999995" y="392.32000000000016" as="targetPoint" />
          </mxGeometry>
        </mxCell>
        <mxCell id="-fNTB-2suzKJk9UKnYij-35" value="" style="endArrow=classic;html=1;fontFamily=Helvetica;fontSize=13;" edge="1" parent="1">
          <mxGeometry width="50" height="50" relative="1" as="geometry">
            <mxPoint x="320" y="347" as="sourcePoint" />
            <mxPoint x="320" y="394" as="targetPoint" />
          </mxGeometry>
        </mxCell>
        <mxCell id="-fNTB-2suzKJk9UKnYij-36" value="" style="endArrow=classic;html=1;fontFamily=Helvetica;fontSize=13;" edge="1" parent="1">
          <mxGeometry width="50" height="50" relative="1" as="geometry">
            <mxPoint x="532" y="347" as="sourcePoint" />
            <mxPoint x="531.5" y="392.31999999999994" as="targetPoint" />
          </mxGeometry>
        </mxCell>
        <mxCell id="-fNTB-2suzKJk9UKnYij-37" value="" style="endArrow=classic;html=1;fontFamily=Helvetica;fontSize=13;entryX=0;entryY=0.5;entryDx=0;entryDy=0;" edge="1" parent="1" target="-fNTB-2suzKJk9UKnYij-27">
          <mxGeometry width="50" height="50" relative="1" as="geometry">
            <mxPoint x="320" y="347" as="sourcePoint" />
            <mxPoint x="382" y="422.31999999999994" as="targetPoint" />
          </mxGeometry>
        </mxCell>
        <mxCell id="-fNTB-2suzKJk9UKnYij-38" value="" style="endArrow=classic;html=1;fontFamily=Helvetica;fontSize=13;entryX=0;entryY=0.5;entryDx=0;entryDy=0;" edge="1" parent="1">
          <mxGeometry width="50" height="50" relative="1" as="geometry">
            <mxPoint x="502" y="347" as="sourcePoint" />
            <mxPoint x="531.21" y="394" as="targetPoint" />
          </mxGeometry>
        </mxCell>
        <mxCell id="-fNTB-2suzKJk9UKnYij-39" value="" style="endArrow=classic;html=1;fontFamily=Helvetica;fontSize=13;entryX=0;entryY=0.5;entryDx=0;entryDy=0;" edge="1" parent="1" target="-fNTB-2suzKJk9UKnYij-26">
          <mxGeometry width="50" height="50" relative="1" as="geometry">
            <mxPoint x="320" y="347" as="sourcePoint" />
            <mxPoint x="450.43000000000006" y="414" as="targetPoint" />
          </mxGeometry>
        </mxCell>
        <mxCell id="-fNTB-2suzKJk9UKnYij-40" value="" style="endArrow=classic;html=1;fontFamily=Helvetica;fontSize=13;entryX=0;entryY=0.5;entryDx=0;entryDy=0;" edge="1" parent="1">
          <mxGeometry width="50" height="50" relative="1" as="geometry">
            <mxPoint x="351" y="347" as="sourcePoint" />
            <mxPoint x="531.56" y="395" as="targetPoint" />
          </mxGeometry>
        </mxCell>
        <mxCell id="-fNTB-2suzKJk9UKnYij-41" value="" style="endArrow=classic;html=1;fontFamily=Helvetica;fontSize=13;exitX=1;exitY=0.5;exitDx=0;exitDy=0;entryX=0;entryY=0.5;entryDx=0;entryDy=0;" edge="1" parent="1" source="-fNTB-2suzKJk9UKnYij-20" target="-fNTB-2suzKJk9UKnYij-26">
          <mxGeometry width="50" height="50" relative="1" as="geometry">
            <mxPoint x="350" y="324" as="sourcePoint" />
            <mxPoint x="500" y="394" as="targetPoint" />
          </mxGeometry>
        </mxCell>
        <mxCell id="-fNTB-2suzKJk9UKnYij-42" value="" style="endArrow=classic;html=1;fontFamily=Helvetica;fontSize=13;entryX=0;entryY=0.5;entryDx=0;entryDy=0;" edge="1" parent="1" target="-fNTB-2suzKJk9UKnYij-27">
          <mxGeometry width="50" height="50" relative="1" as="geometry">
            <mxPoint x="533" y="347" as="sourcePoint" />
            <mxPoint x="530.56" y="424" as="targetPoint" />
          </mxGeometry>
        </mxCell>
        <mxCell id="-fNTB-2suzKJk9UKnYij-43" value="" style="endArrow=classic;html=1;fontFamily=Helvetica;fontSize=13;entryX=0;entryY=0.5;entryDx=0;entryDy=0;" edge="1" parent="1" target="-fNTB-2suzKJk9UKnYij-26">
          <mxGeometry width="50" height="50" relative="1" as="geometry">
            <mxPoint x="530" y="347" as="sourcePoint" />
            <mxPoint x="369.43000000000006" y="414" as="targetPoint" />
          </mxGeometry>
        </mxCell>
        <mxCell id="-fNTB-2suzKJk9UKnYij-44" value="" style="ellipse;whiteSpace=wrap;html=1;aspect=fixed;labelBackgroundColor=none;fontFamily=Helvetica;fontSize=13;strokeColor=#d6b656;strokeWidth=1;verticalAlign=middle;fillColor=#fff2cc;" vertex="1" parent="1">
          <mxGeometry x="223" y="491" width="50" height="50" as="geometry" />
        </mxCell>
        <mxCell id="-fNTB-2suzKJk9UKnYij-45" value="" style="ellipse;whiteSpace=wrap;html=1;aspect=fixed;labelBackgroundColor=none;fontFamily=Helvetica;fontSize=13;strokeColor=#d6b656;strokeWidth=1;verticalAlign=middle;fillColor=#fff2cc;" vertex="1" parent="1">
          <mxGeometry x="299" y="491" width="50" height="50" as="geometry" />
        </mxCell>
        <mxCell id="-fNTB-2suzKJk9UKnYij-46" value="" style="shape=waypoint;sketch=0;fillStyle=solid;size=6;pointerEvents=1;points=[];fillColor=none;resizable=0;rotatable=0;perimeter=centerPerimeter;snapToPoint=1;" vertex="1" parent="1">
          <mxGeometry x="379.25" y="496" width="40" height="40" as="geometry" />
        </mxCell>
        <mxCell id="-fNTB-2suzKJk9UKnYij-47" value="" style="shape=waypoint;sketch=0;fillStyle=solid;size=6;pointerEvents=1;points=[];fillColor=none;resizable=0;rotatable=0;perimeter=centerPerimeter;snapToPoint=1;" vertex="1" parent="1">
          <mxGeometry x="405.75" y="496" width="40" height="40" as="geometry" />
        </mxCell>
        <mxCell id="-fNTB-2suzKJk9UKnYij-48" value="" style="shape=waypoint;sketch=0;fillStyle=solid;size=6;pointerEvents=1;points=[];fillColor=none;resizable=0;rotatable=0;perimeter=centerPerimeter;snapToPoint=1;" vertex="1" parent="1">
          <mxGeometry x="431.75" y="496" width="40" height="40" as="geometry" />
        </mxCell>
        <mxCell id="-fNTB-2suzKJk9UKnYij-49" value="" style="ellipse;whiteSpace=wrap;html=1;aspect=fixed;labelBackgroundColor=none;fontFamily=Helvetica;fontSize=13;strokeColor=#d6b656;strokeWidth=1;verticalAlign=middle;fillColor=#fff2cc;" vertex="1" parent="1">
          <mxGeometry x="502" y="491" width="50" height="50" as="geometry" />
        </mxCell>
        <mxCell id="-fNTB-2suzKJk9UKnYij-50" value="" style="ellipse;whiteSpace=wrap;html=1;aspect=fixed;labelBackgroundColor=none;fontFamily=Helvetica;fontSize=13;strokeColor=#d6b656;strokeWidth=1;verticalAlign=middle;fillColor=#fff2cc;" vertex="1" parent="1">
          <mxGeometry x="578" y="491" width="50" height="50" as="geometry" />
        </mxCell>
        <mxCell id="-fNTB-2suzKJk9UKnYij-51" value="&lt;font color=&quot;#4d4d4d&quot; style=&quot;font-size: 13px;&quot;&gt;&lt;span style=&quot;font-size: 13px;&quot;&gt;Categories&lt;/span&gt;&lt;/font&gt;" style="text;html=1;strokeColor=none;fillColor=none;align=left;verticalAlign=middle;whiteSpace=wrap;rounded=0;labelBackgroundColor=none;fontSize=13;fontFamily=Helvetica;fontStyle=3;strokeWidth=1;flipV=1;" vertex="1" parent="1">
          <mxGeometry x="130" y="506" width="142" height="20" as="geometry" />
        </mxCell>
        <mxCell id="-fNTB-2suzKJk9UKnYij-52" value="" style="endArrow=classic;html=1;fontFamily=Helvetica;fontSize=13;" edge="1" parent="1">
          <mxGeometry width="50" height="50" relative="1" as="geometry">
            <mxPoint x="501" y="347" as="sourcePoint" />
            <mxPoint x="320" y="394" as="targetPoint" />
          </mxGeometry>
        </mxCell>
        <mxCell id="-fNTB-2suzKJk9UKnYij-53" value="" style="endArrow=classic;html=1;fontFamily=Helvetica;fontSize=13;entryX=-0.042;entryY=0.818;entryDx=0;entryDy=0;entryPerimeter=0;" edge="1" parent="1" target="-fNTB-2suzKJk9UKnYij-27">
          <mxGeometry width="50" height="50" relative="1" as="geometry">
            <mxPoint x="349" y="347" as="sourcePoint" />
            <mxPoint x="510.55999999999995" y="404" as="targetPoint" />
          </mxGeometry>
        </mxCell>
        <mxCell id="-fNTB-2suzKJk9UKnYij-54" value="" style="endArrow=classic;html=1;fontFamily=Helvetica;fontSize=13;entryX=0.5;entryY=0;entryDx=0;entryDy=0;exitX=1;exitY=0.75;exitDx=0;exitDy=0;" edge="1" parent="1" source="-fNTB-2suzKJk9UKnYij-27" target="-fNTB-2suzKJk9UKnYij-44">
          <mxGeometry width="50" height="50" relative="1" as="geometry">
            <mxPoint x="550" y="344" as="sourcePoint" />
            <mxPoint x="520.56" y="414" as="targetPoint" />
          </mxGeometry>
        </mxCell>
        <mxCell id="-fNTB-2suzKJk9UKnYij-55" value="" style="endArrow=classic;html=1;fontFamily=Helvetica;fontSize=13;entryX=0.5;entryY=0;entryDx=0;entryDy=0;exitX=1;exitY=0.75;exitDx=0;exitDy=0;" edge="1" parent="1" source="-fNTB-2suzKJk9UKnYij-27" target="-fNTB-2suzKJk9UKnYij-45">
          <mxGeometry width="50" height="50" relative="1" as="geometry">
            <mxPoint x="560" y="354" as="sourcePoint" />
            <mxPoint x="530.56" y="424" as="targetPoint" />
          </mxGeometry>
        </mxCell>
        <mxCell id="-fNTB-2suzKJk9UKnYij-56" value="" style="endArrow=classic;html=1;fontFamily=Helvetica;fontSize=13;entryX=0.5;entryY=0;entryDx=0;entryDy=0;exitX=1;exitY=0.75;exitDx=0;exitDy=0;" edge="1" parent="1" source="-fNTB-2suzKJk9UKnYij-27" target="-fNTB-2suzKJk9UKnYij-49">
          <mxGeometry width="50" height="50" relative="1" as="geometry">
            <mxPoint x="334.43000000000006" y="444" as="sourcePoint" />
            <mxPoint x="332" y="519" as="targetPoint" />
          </mxGeometry>
        </mxCell>
        <mxCell id="-fNTB-2suzKJk9UKnYij-57" value="" style="endArrow=classic;html=1;fontFamily=Helvetica;fontSize=13;entryX=0.5;entryY=0;entryDx=0;entryDy=0;exitX=1;exitY=0.75;exitDx=0;exitDy=0;" edge="1" parent="1" source="-fNTB-2suzKJk9UKnYij-27" target="-fNTB-2suzKJk9UKnYij-50">
          <mxGeometry width="50" height="50" relative="1" as="geometry">
            <mxPoint x="344.43000000000006" y="454" as="sourcePoint" />
            <mxPoint x="342" y="529" as="targetPoint" />
          </mxGeometry>
        </mxCell>
        <mxCell id="-fNTB-2suzKJk9UKnYij-58" value="" style="endArrow=classic;html=1;fontFamily=Helvetica;fontSize=13;entryX=0.5;entryY=0;entryDx=0;entryDy=0;exitX=1;exitY=0.5;exitDx=0;exitDy=0;" edge="1" parent="1" source="-fNTB-2suzKJk9UKnYij-27" target="-fNTB-2suzKJk9UKnYij-44">
          <mxGeometry width="50" height="50" relative="1" as="geometry">
            <mxPoint x="354.43000000000006" y="464" as="sourcePoint" />
            <mxPoint x="352" y="539" as="targetPoint" />
          </mxGeometry>
        </mxCell>
        <mxCell id="-fNTB-2suzKJk9UKnYij-59" value="" style="endArrow=classic;html=1;fontFamily=Helvetica;fontSize=13;entryX=0.5;entryY=0;entryDx=0;entryDy=0;exitX=1;exitY=0.5;exitDx=0;exitDy=0;" edge="1" parent="1" source="-fNTB-2suzKJk9UKnYij-27" target="-fNTB-2suzKJk9UKnYij-45">
          <mxGeometry width="50" height="50" relative="1" as="geometry">
            <mxPoint x="364.43000000000006" y="474" as="sourcePoint" />
            <mxPoint x="362" y="549" as="targetPoint" />
          </mxGeometry>
        </mxCell>
        <mxCell id="-fNTB-2suzKJk9UKnYij-60" value="" style="endArrow=classic;html=1;fontFamily=Helvetica;fontSize=13;entryX=0.5;entryY=0;entryDx=0;entryDy=0;exitX=1;exitY=0.5;exitDx=0;exitDy=0;" edge="1" parent="1" source="-fNTB-2suzKJk9UKnYij-27" target="-fNTB-2suzKJk9UKnYij-49">
          <mxGeometry width="50" height="50" relative="1" as="geometry">
            <mxPoint x="374.43000000000006" y="484" as="sourcePoint" />
            <mxPoint x="372" y="559" as="targetPoint" />
          </mxGeometry>
        </mxCell>
        <mxCell id="-fNTB-2suzKJk9UKnYij-61" value="" style="endArrow=classic;html=1;fontFamily=Helvetica;fontSize=13;entryX=0.5;entryY=0;entryDx=0;entryDy=0;exitX=1;exitY=0.5;exitDx=0;exitDy=0;" edge="1" parent="1" source="-fNTB-2suzKJk9UKnYij-27" target="-fNTB-2suzKJk9UKnYij-50">
          <mxGeometry width="50" height="50" relative="1" as="geometry">
            <mxPoint x="384.43000000000006" y="494" as="sourcePoint" />
            <mxPoint x="382" y="569" as="targetPoint" />
          </mxGeometry>
        </mxCell>
        <mxCell id="-fNTB-2suzKJk9UKnYij-62" value="" style="endArrow=classic;html=1;fontFamily=Helvetica;fontSize=13;entryX=0.5;entryY=0;entryDx=0;entryDy=0;exitX=1;exitY=0.5;exitDx=0;exitDy=0;" edge="1" parent="1" source="-fNTB-2suzKJk9UKnYij-26" target="-fNTB-2suzKJk9UKnYij-44">
          <mxGeometry width="50" height="50" relative="1" as="geometry">
            <mxPoint x="394.43000000000006" y="504" as="sourcePoint" />
            <mxPoint x="392" y="579" as="targetPoint" />
          </mxGeometry>
        </mxCell>
        <mxCell id="-fNTB-2suzKJk9UKnYij-63" value="" style="endArrow=classic;html=1;fontFamily=Helvetica;fontSize=13;entryX=0.5;entryY=0;entryDx=0;entryDy=0;exitX=1;exitY=0.5;exitDx=0;exitDy=0;" edge="1" parent="1" source="-fNTB-2suzKJk9UKnYij-26" target="-fNTB-2suzKJk9UKnYij-45">
          <mxGeometry width="50" height="50" relative="1" as="geometry">
            <mxPoint x="404.43000000000006" y="514" as="sourcePoint" />
            <mxPoint x="402" y="589" as="targetPoint" />
          </mxGeometry>
        </mxCell>
        <mxCell id="-fNTB-2suzKJk9UKnYij-64" value="" style="endArrow=classic;html=1;fontFamily=Helvetica;fontSize=13;entryX=0.5;entryY=0;entryDx=0;entryDy=0;exitX=1;exitY=0.5;exitDx=0;exitDy=0;" edge="1" parent="1" source="-fNTB-2suzKJk9UKnYij-26" target="-fNTB-2suzKJk9UKnYij-49">
          <mxGeometry width="50" height="50" relative="1" as="geometry">
            <mxPoint x="414.43000000000006" y="524" as="sourcePoint" />
            <mxPoint x="412" y="599" as="targetPoint" />
          </mxGeometry>
        </mxCell>
        <mxCell id="-fNTB-2suzKJk9UKnYij-65" value="" style="endArrow=classic;html=1;fontFamily=Helvetica;fontSize=13;entryX=0.5;entryY=0;entryDx=0;entryDy=0;exitX=1;exitY=0.5;exitDx=0;exitDy=0;" edge="1" parent="1" source="-fNTB-2suzKJk9UKnYij-26" target="-fNTB-2suzKJk9UKnYij-50">
          <mxGeometry width="50" height="50" relative="1" as="geometry">
            <mxPoint x="424.43000000000006" y="534" as="sourcePoint" />
            <mxPoint x="422" y="609" as="targetPoint" />
          </mxGeometry>
        </mxCell>
        <mxCell id="-fNTB-2suzKJk9UKnYij-66" value="" style="endArrow=classic;html=1;fontFamily=Helvetica;fontSize=13;entryX=0.5;entryY=0;entryDx=0;entryDy=0;exitX=1;exitY=0.25;exitDx=0;exitDy=0;" edge="1" parent="1" source="-fNTB-2suzKJk9UKnYij-26" target="-fNTB-2suzKJk9UKnYij-44">
          <mxGeometry width="50" height="50" relative="1" as="geometry">
            <mxPoint x="640" y="474" as="sourcePoint" />
            <mxPoint x="310" y="574" as="targetPoint" />
          </mxGeometry>
        </mxCell>
        <mxCell id="-fNTB-2suzKJk9UKnYij-67" value="" style="endArrow=classic;html=1;fontFamily=Helvetica;fontSize=13;entryX=0.5;entryY=0;entryDx=0;entryDy=0;exitX=1;exitY=0.25;exitDx=0;exitDy=0;" edge="1" parent="1" source="-fNTB-2suzKJk9UKnYij-26" target="-fNTB-2suzKJk9UKnYij-49">
          <mxGeometry width="50" height="50" relative="1" as="geometry">
            <mxPoint x="444.43000000000006" y="554" as="sourcePoint" />
            <mxPoint x="442" y="629" as="targetPoint" />
          </mxGeometry>
        </mxCell>
        <mxCell id="-fNTB-2suzKJk9UKnYij-68" value="" style="endArrow=classic;html=1;fontFamily=Helvetica;fontSize=13;entryX=0.5;entryY=0;entryDx=0;entryDy=0;exitX=1;exitY=0.25;exitDx=0;exitDy=0;" edge="1" parent="1" source="-fNTB-2suzKJk9UKnYij-26" target="-fNTB-2suzKJk9UKnYij-50">
          <mxGeometry width="50" height="50" relative="1" as="geometry">
            <mxPoint x="454.43000000000006" y="564" as="sourcePoint" />
            <mxPoint x="452" y="639" as="targetPoint" />
          </mxGeometry>
        </mxCell>
        <mxCell id="-fNTB-2suzKJk9UKnYij-69" value="" style="endArrow=classic;html=1;fontFamily=Helvetica;fontSize=13;entryX=0.5;entryY=0;entryDx=0;entryDy=0;exitX=1;exitY=0.25;exitDx=0;exitDy=0;" edge="1" parent="1" source="-fNTB-2suzKJk9UKnYij-26" target="-fNTB-2suzKJk9UKnYij-45">
          <mxGeometry width="50" height="50" relative="1" as="geometry">
            <mxPoint x="464.43000000000006" y="574" as="sourcePoint" />
            <mxPoint x="462" y="649" as="targetPoint" />
          </mxGeometry>
        </mxCell>
        <mxCell id="-fNTB-2suzKJk9UKnYij-70" value="&lt;font color=&quot;#4d4d4d&quot; style=&quot;font-size: 13px&quot;&gt;&lt;span style=&quot;font-size: 13px&quot;&gt;Softmax&lt;/span&gt;&lt;/font&gt;" style="text;html=1;strokeColor=none;fillColor=none;align=left;verticalAlign=middle;whiteSpace=wrap;rounded=0;labelBackgroundColor=none;fontSize=13;fontFamily=Helvetica;fontStyle=3;strokeWidth=1;flipV=1;" vertex="1" parent="1">
          <mxGeometry x="130" y="447" width="142" height="20" as="geometry" />
        </mxCell>
      </root>
    </mxGraphModel>
  </diagram>
</mxfile>
